<svg width="25" height="25" viewBox="0 0 75 75" fill="none" xmlns="http://www.w3.org/2000/svg">
<path fill-rule="evenodd" clip-rule="evenodd" d="M46.3008 56.0281C46.3008 52.1924 49.4102 49.083 53.2458 49.083C57.0815 49.083 60.1909 52.1924 60.1909 56.0281C60.1909 59.8637 57.0815 62.9731 53.2458 62.9731C49.4102 62.9731 46.3008 59.8637 46.3008 56.0281ZM55.5608 56.0281C55.5608 54.7495 54.5244 53.713 53.2458 53.713C51.9673 53.713 50.9308 54.7495 50.9308 56.0281C50.9308 57.3066 51.9673 58.3431 53.2458 58.3431C54.5244 58.3431 55.5608 57.3066 55.5608 56.0281Z" fill="url(#paint0_linear_969_1395)"/>
<path d="M37.0416 56.028C35.763 56.028 34.7266 54.9915 34.7266 53.713C34.7266 52.5257 35.6203 51.5473 36.7716 51.4135L37.0416 51.3979H41.6716C42.9502 51.3979 43.9866 52.4344 43.9866 53.713C43.9866 54.9002 43.0929 55.8787 41.9416 56.0124L41.6716 56.028H37.0416Z" fill="url(#paint1_linear_969_1395)"/>
<path fill-rule="evenodd" clip-rule="evenodd" d="M18.5195 56.0281C18.5195 52.1924 21.6289 49.083 25.4646 49.083C29.3002 49.083 32.4096 52.1924 32.4096 56.0281C32.4096 59.8637 29.3002 62.9731 25.4646 62.9731C21.6289 62.9731 18.5195 59.8637 18.5195 56.0281ZM27.7796 56.0281C27.7796 54.7495 26.7431 53.713 25.4646 53.713C24.186 53.713 23.1496 54.7495 23.1496 56.0281C23.1496 57.3066 24.186 58.3431 25.4646 58.3431C26.7431 58.3431 27.7796 57.3066 27.7796 56.0281Z" fill="url(#paint2_linear_969_1395)"/>
<path d="M60.1909 56.0281V36.5948C60.1909 36.2291 60.1043 35.8701 59.9399 35.5463L59.8021 35.3106L52.6941 24.6487C52.3184 24.0852 51.7181 23.7186 51.0553 23.6357L50.7679 23.6178H46.3008V18.9878H50.7679C52.9352 18.9878 54.9687 19.9987 56.2774 21.7044L56.5465 22.0804L63.6545 32.7424C64.32 33.7406 64.7139 34.8917 64.802 36.0824L64.8209 36.5948V51.398C64.8209 53.8389 62.9321 55.8386 60.5364 56.0154L60.1909 56.0281Z" fill="url(#paint3_linear_969_1395)"/>
<path d="M18.5207 53.7132C16.0798 53.7132 14.0801 51.8244 13.9033 49.4287L13.8906 49.0832V44.4531H18.5207V53.7132Z" fill="url(#paint4_linear_969_1395)"/>
<path fill-rule="evenodd" clip-rule="evenodd" d="M13.8904 12.043H41.6706C45.5062 12.043 48.6156 15.1524 48.6156 18.988V39.8232C48.6156 43.6588 45.5062 46.7682 41.6706 46.7682H13.8904C10.0547 46.7682 6.94531 43.6588 6.94531 39.8232V18.988C6.94531 15.1524 10.0547 12.043 13.8904 12.043ZM41.6706 16.673H13.8904C12.6118 16.673 11.5753 17.7095 11.5753 18.988V39.8232C11.5753 41.1017 12.6118 42.1382 13.8904 42.1382H41.6706C42.9491 42.1382 43.9856 41.1017 43.9856 39.8232V18.988C43.9856 17.7095 42.9491 16.673 41.6706 16.673Z" fill="url(#paint5_linear_969_1395)"/>
<defs>
<linearGradient id="paint0_linear_969_1395" x1="39.3557" y1="56.0281" x2="53.2458" y2="69.9182" gradientUnits="userSpaceOnUse">
<stop offset="1"/>
</linearGradient>
<linearGradient id="paint1_linear_969_1395" x1="30.0965" y1="53.713" x2="33.8006" y2="61.121" gradientUnits="userSpaceOnUse">
<stop offset="1"/>
</linearGradient>
<linearGradient id="paint2_linear_969_1395" x1="11.5745" y1="56.0281" x2="25.4646" y2="69.9182" gradientUnits="userSpaceOnUse">
<stop offset="1"/>
</linearGradient>
<linearGradient id="paint3_linear_969_1395" x1="37.0407" y1="37.5079" x2="66.6729" y2="52.324" gradientUnits="userSpaceOnUse">
<stop offset="1"/>
</linearGradient>
<linearGradient id="paint4_linear_969_1395" x1="11.5756" y1="49.0832" x2="18.9837" y2="52.7872" gradientUnits="userSpaceOnUse">
<stop offset="1"/>
</linearGradient>
<linearGradient id="paint5_linear_969_1395" x1="-13.8898" y1="29.4056" x2="20.2661" y2="70.3928" gradientUnits="userSpaceOnUse">
<stop offset="1"/>
</linearGradient>
</defs>
</svg>
