<svg width="36" height="36" viewBox="0 0 165 165" fill="none" xmlns="http://www.w3.org/2000/svg">
<path fill-rule="evenodd" clip-rule="evenodd" d="M27.2915 104.635L104.635 27.2915C106.649 25.2778 109.914 25.2778 111.927 27.2915L137.709 53.0727C139.722 55.0864 139.722 58.3511 137.709 60.3648L60.3648 137.709C59.3978 138.676 58.0863 139.219 56.7188 139.219H30.9375C28.0898 139.219 25.7812 136.91 25.7812 134.062V108.281C25.7812 106.914 26.3245 105.602 27.2915 104.635ZM126.766 56.719L108.281 38.2338L36.0938 110.416V128.906H54.5738L126.766 56.719Z" fill="url(#paint0_linear_1015_1603)"/>
<path d="M44.8975 94.3225L70.6788 120.104L63.3867 127.396L37.6055 101.615L44.8975 94.3225Z" fill="url(#paint1_linear_1015_1603)"/>
<path d="M96.46 42.76L122.241 68.5413L114.949 75.8333L89.168 50.052L96.46 42.76Z" fill="url(#paint2_linear_1015_1603)"/>
<defs>
<linearGradient id="paint0_linear_1015_1603" x1="-30.9375" y1="82.5" x2="82.5" y2="195.938" gradientUnits="userSpaceOnUse">
<stop offset="1" stop-color="white"/>
</linearGradient>
<linearGradient id="paint1_linear_1015_1603" x1="21.0688" y1="110.859" x2="54.1421" y2="143.932" gradientUnits="userSpaceOnUse">
<stop offset="1" stop-color="white"/>
</linearGradient>
<linearGradient id="paint2_linear_1015_1603" x1="72.6313" y1="59.2967" x2="105.705" y2="92.3699" gradientUnits="userSpaceOnUse">
<stop offset="1" stop-color="white"/>
</linearGradient>
</defs>
</svg>
