<svg width="25" height="25" viewBox="0 0 75 75" fill="none" xmlns="http://www.w3.org/2000/svg">
<path d="M57.8759 39.5371C59.0632 39.5371 60.0417 40.4308 60.1754 41.5821L60.191 41.8521V60.3723C60.191 64.0709 57.2997 67.0943 53.654 67.3055L53.2459 67.3173H20.8357C17.137 67.3173 14.1137 64.426 13.9024 60.7803L13.8906 60.3723V41.8521C13.8906 40.5736 14.9271 39.5371 16.2056 39.5371C17.3929 39.5371 18.3714 40.4308 18.5051 41.5821L18.5207 41.8521V60.3723C18.5207 61.5595 19.4143 62.538 20.5657 62.6717L20.8357 62.6873H53.2459C54.4331 62.6873 55.4116 61.7936 55.5454 60.6422L55.5609 60.3723V41.8521C55.5609 40.5736 56.5974 39.5371 57.8759 39.5371Z" fill="black"/>
<path fill-rule="evenodd" clip-rule="evenodd" d="M30.0977 46.4822C30.0977 42.6465 33.2071 39.5371 37.0427 39.5371C40.8784 39.5371 43.9878 42.6465 43.9878 46.4822V53.4272C43.9878 54.7058 42.9513 55.7422 41.6727 55.7422H32.4127C31.1341 55.7422 30.0977 54.7058 30.0977 53.4272V46.4822ZM39.3577 46.4822C39.3577 45.2949 38.464 44.3164 37.3127 44.1827L37.0427 44.1671C35.7642 44.1671 34.7277 45.2036 34.7277 46.4822V51.1122H39.3577V46.4822Z" fill="black"/>
<path d="M35.4036 7.80501C36.2381 6.97048 37.5512 6.90629 38.4594 7.61242L38.6775 7.80501L66.4577 35.5852C67.3618 36.4893 67.3618 37.9551 66.4577 38.8591C65.6232 39.6937 64.31 39.7579 63.4019 39.0517L63.1838 38.8591L37.0405 12.7177L10.8973 38.8591C10.0628 39.6937 8.74962 39.7579 7.84146 39.0517L7.62337 38.8591C6.78884 38.0246 6.72464 36.7115 7.43078 35.8033L7.62337 35.5852L35.4036 7.80501Z" fill="black"/>
</svg>
