<svg width="25" height="25" viewBox="0 0 75 75" fill="none" xmlns="http://www.w3.org/2000/svg">
<path fill-rule="evenodd" clip-rule="evenodd" d="M6.94531 37.1616C6.94531 20.5405 20.4194 7.06641 37.0405 7.06641C53.6617 7.06641 67.1358 20.5405 67.1358 37.1616C67.1358 53.7828 53.6617 67.2569 37.0405 67.2569C20.4194 67.2569 6.94531 53.7828 6.94531 37.1616ZM62.5057 37.1616C62.5057 23.0976 51.1046 11.6964 37.0405 11.6964C22.9765 11.6964 11.5753 23.0976 11.5753 37.1616C11.5753 51.2257 22.9765 62.6268 37.0405 62.6268C51.1046 62.6268 62.5057 51.2257 62.5057 37.1616Z" fill="url(#paint0_radial_969_1394)"/>
<path d="M37.0399 53.3673C30.7036 53.3673 25.4648 49.8747 25.4648 44.1072C25.4648 42.8287 26.5013 41.7922 27.7799 41.7922C28.9671 41.7922 29.9456 42.6859 30.0793 43.8372L30.0949 44.1072C30.0949 46.8281 32.9586 48.7372 37.0399 48.7372C41.1212 48.7372 43.985 46.8281 43.985 44.1072C43.985 43.4306 43.3422 42.6156 41.8116 41.7051L41.1514 41.336C40.3246 40.8995 39.2973 40.4435 38.0446 39.9723L36.9151 39.5647L36.3079 39.3584C29.0113 36.9262 25.4648 34.0864 25.4648 30.2171C25.4648 24.4496 30.7036 20.957 37.0399 20.957C43.3762 20.957 48.615 24.4496 48.615 30.2171C48.615 31.4956 47.5785 32.5321 46.3 32.5321C45.1128 32.5321 44.1343 31.6384 44.0006 30.4871L43.985 30.2171C43.985 27.4962 41.1212 25.5871 37.0399 25.5871C32.9586 25.5871 30.0949 27.4962 30.0949 30.2171C30.0949 31.202 31.4707 32.4892 34.9766 33.9351L36.0369 34.3524L37.1654 34.7598L37.772 34.9659C45.0753 37.4004 48.615 40.2321 48.615 44.1072C48.615 49.8747 43.3762 53.3673 37.0399 53.3673Z" fill="url(#paint1_radial_969_1394)"/>
<path d="M37.0416 18.6426C38.2288 18.6426 39.2073 19.5363 39.341 20.6876L39.3566 20.9576V53.3678C39.3566 54.6464 38.3201 55.6828 37.0416 55.6828C35.8544 55.6828 34.8759 54.7892 34.7421 53.6378L34.7266 53.3678V20.9576C34.7266 19.679 35.763 18.6426 37.0416 18.6426Z" fill="url(#paint2_radial_969_1394)"/>
<defs>
<radialGradient id="paint0_radial_969_1394" cx="0" cy="0" r="1" gradientUnits="userSpaceOnUse" gradientTransform="translate(6.94531 67.2568) rotate(45) scale(42.5611)">
<stop offset="1"/>
</radialGradient>
<radialGradient id="paint1_radial_969_1394" cx="0" cy="0" r="1" gradientUnits="userSpaceOnUse" gradientTransform="translate(25.4648 53.3673) rotate(54.4623) scale(19.9145 18.8381)">
<stop offset="1"/>
</radialGradient>
<radialGradient id="paint2_radial_969_1394" cx="0" cy="0" r="1" gradientUnits="userSpaceOnUse" gradientTransform="translate(34.7266 55.6828) rotate(82.875) scale(18.6643 4.59428)">
<stop offset="1"/>
</radialGradient>
</defs>
</svg>
