<svg width="25" height="25" viewBox="0 0 75 75" fill="none" xmlns="http://www.w3.org/2000/svg">
<path fill-rule="evenodd" clip-rule="evenodd" d="M13.8906 58.1927C13.8906 46.8883 24.3242 37.8711 37.0408 37.8711C49.7573 37.8711 60.191 46.8883 60.191 58.1927C60.191 71.2242 13.8906 71.2242 13.8906 58.1927ZM55.5609 58.1927C55.5609 49.6076 47.3381 42.5011 37.0408 42.5011C26.7435 42.5011 18.5207 49.6076 18.5207 58.1927C18.5207 60.7769 23.7799 62.3874 30.3349 63.0241L31.8688 63.1537C35.2342 63.3971 38.8474 63.3971 42.2128 63.1537L43.7467 63.0241C50.3017 62.3874 55.5609 60.7769 55.5609 58.1927Z" fill="black"/>
<path fill-rule="evenodd" clip-rule="evenodd" d="M23.1484 21.6655C23.1484 13.9942 29.3672 7.77539 37.0385 7.77539C44.7098 7.77539 50.9286 13.9942 50.9286 21.6655C50.9286 29.3368 44.7098 35.5556 37.0385 35.5556C29.3672 35.5556 23.1484 29.3368 23.1484 21.6655ZM46.2986 21.6655C46.2986 16.5513 42.1527 12.4054 37.0385 12.4054C31.9243 12.4054 27.7785 16.5513 27.7785 21.6655C27.7785 26.7797 31.9243 30.9256 37.0385 30.9256C42.1527 30.9256 46.2986 26.7797 46.2986 21.6655Z" fill="black"/>
</svg>
